<svg xmlns="http://www.w3.org/2000/svg" width="512" height="512"><path fill="#040404" fill-rule="evenodd" d="M201 2c-18 5-32 16-39 31-5 13-5 4-5 168l-1 156c-4 17-27 20-35 4-1-3-2-8-2-101-1-111 0-104-9-118-29-43-97-32-108 18-4 14-2 169 1 173 9 12 25 12 34 0 3-3 3-3 3-83 0-73 1-81 2-83 8-15 27-15 35 0 1 2 2 12 2 101 1 111 0 103 9 117 28 43 95 33 107-17 2-6 2-26 2-158l1-155c3-15 24-20 33-7 4 6 4 3 4 212 0 224-1 206 7 221 24 47 97 39 110-14 3-9 3-47 0-52-7-14-25-15-35-2-2 3-3 5-3 24 0 14-1 21-2 23-8 15-27 15-35 1-1-3-2-20-2-209 0-206 0-206-3-212-12-31-42-47-71-38m157 115c-20 6-37 23-42 43-3 8-3 167-1 172 5 11 21 16 31 8 9-7 8 0 8-88l1-82c4-14 21-19 31-9 7 6 6-1 7 107 1 99 1 99 3 104 21 56 100 52 114-5 3-10 3-161 0-165-7-15-25-16-35-3-2 3-3 4-3 80-1 85 0 81-7 88-8 7-22 5-29-4-2-4-2-4-3-103-1-108 0-101-7-113a61 61 0 0 0-68-30"/></svg>